<svg width="185" height="166" viewBox="0 0 185 166" fill="none" xmlns="http://www.w3.org/2000/svg">
<g opacity="0.5">
<circle cx="4.55451" cy="4.55451" r="4.55439" fill="#ECE5E5"/>
<circle cx="24.0732" cy="4.55439" r="4.55439" fill="#ECE5E5"/>
<circle cx="43.5921" cy="4.55439" r="4.55439" fill="#ECE5E5"/>
<circle cx="63.1107" cy="4.55439" r="4.55439" fill="#ECE5E5"/>
<circle cx="4.55439" cy="21.9042" r="4.55439" fill="#ECE5E5"/>
<circle cx="24.0732" cy="21.9042" r="4.55439" fill="#ECE5E5"/>
<circle cx="43.5921" cy="21.9042" r="4.55439" fill="#ECE5E5"/>
<circle cx="63.1107" cy="21.9042" r="4.55439" fill="#ECE5E5"/>
<circle cx="4.55439" cy="39.0377" r="4.55439" fill="#ECE5E5"/>
<circle cx="24.0732" cy="39.0377" r="4.55439" fill="#ECE5E5"/>
<circle cx="43.5921" cy="39.0377" r="4.55439" fill="#ECE5E5"/>
<circle cx="63.1107" cy="39.0377" r="4.55439" fill="#ECE5E5"/>
<circle cx="4.55439" cy="56.3876" r="4.55439" fill="#ECE5E5"/>
<circle cx="24.0732" cy="56.3876" r="4.55439" fill="#ECE5E5"/>
<circle cx="43.5921" cy="56.3876" r="4.55439" fill="#ECE5E5"/>
<circle cx="63.1107" cy="56.3876" r="4.55439" fill="#ECE5E5"/>
<circle cx="4.55439" cy="73.7379" r="4.55439" fill="#ECE5E5"/>
<circle cx="24.0732" cy="73.7379" r="4.55439" fill="#ECE5E5"/>
<circle cx="43.5921" cy="73.7379" r="4.55439" fill="#ECE5E5"/>
<circle cx="63.1107" cy="73.7379" r="4.55439" fill="#ECE5E5"/>
<circle cx="82.6295" cy="4.55439" r="4.55439" fill="#ECE5E5"/>
<circle cx="82.6295" cy="21.9042" r="4.55439" fill="#ECE5E5"/>
<circle cx="82.6295" cy="39.0377" r="4.55439" fill="#ECE5E5"/>
<circle cx="82.6295" cy="56.3876" r="4.55439" fill="#ECE5E5"/>
<circle cx="82.6295" cy="73.7379" r="4.55439" fill="#ECE5E5"/>
<circle cx="102.371" cy="4.55439" r="4.55439" fill="#ECE5E5"/>
<circle cx="121.889" cy="4.55439" r="4.55439" fill="#ECE5E5"/>
<circle cx="141.408" cy="4.55439" r="4.55439" fill="#ECE5E5"/>
<circle cx="160.927" cy="4.55439" r="4.55439" fill="#ECE5E5"/>
<circle cx="102.371" cy="21.9042" r="4.55439" fill="#ECE5E5"/>
<circle cx="121.889" cy="21.9042" r="4.55439" fill="#ECE5E5"/>
<circle cx="141.408" cy="21.9042" r="4.55439" fill="#ECE5E5"/>
<circle cx="160.927" cy="21.9042" r="4.55439" fill="#ECE5E5"/>
<circle cx="102.371" cy="39.0377" r="4.55439" fill="#ECE5E5"/>
<circle cx="121.889" cy="39.0377" r="4.55439" fill="#ECE5E5"/>
<circle cx="141.408" cy="39.0377" r="4.55439" fill="#ECE5E5"/>
<circle cx="160.927" cy="39.0377" r="4.55439" fill="#ECE5E5"/>
<circle cx="102.371" cy="56.3876" r="4.55439" fill="#ECE5E5"/>
<circle cx="121.889" cy="56.3876" r="4.55439" fill="#ECE5E5"/>
<circle cx="141.408" cy="56.3876" r="4.55439" fill="#ECE5E5"/>
<circle cx="160.927" cy="56.3876" r="4.55439" fill="#ECE5E5"/>
<circle cx="102.371" cy="73.7379" r="4.55439" fill="#ECE5E5"/>
<circle cx="121.889" cy="73.7379" r="4.55439" fill="#ECE5E5"/>
<circle cx="141.408" cy="73.7379" r="4.55439" fill="#ECE5E5"/>
<circle cx="160.927" cy="73.7379" r="4.55439" fill="#ECE5E5"/>
<circle cx="180.446" cy="4.55439" r="4.55439" fill="#ECE5E5"/>
<circle cx="180.446" cy="21.9042" r="4.55439" fill="#ECE5E5"/>
<circle cx="180.446" cy="39.0377" r="4.55439" fill="#ECE5E5"/>
<circle cx="180.446" cy="56.3876" r="4.55439" fill="#ECE5E5"/>
<circle cx="180.446" cy="73.7379" r="4.55439" fill="#ECE5E5"/>
<circle cx="4.55457" cy="91.8744" r="4.55439" fill="#ECE5E5"/>
<circle cx="24.0732" cy="91.8744" r="4.55439" fill="#ECE5E5"/>
<circle cx="43.5921" cy="91.8744" r="4.55439" fill="#ECE5E5"/>
<circle cx="63.1107" cy="91.8744" r="4.55439" fill="#ECE5E5"/>
<circle cx="4.55439" cy="109.224" r="4.55439" fill="#ECE5E5"/>
<circle cx="24.0732" cy="109.224" r="4.55439" fill="#ECE5E5"/>
<circle cx="43.5921" cy="109.224" r="4.55439" fill="#ECE5E5"/>
<circle cx="63.1107" cy="109.224" r="4.55439" fill="#ECE5E5"/>
<circle cx="4.55439" cy="126.358" r="4.55439" fill="#ECE5E5"/>
<circle cx="24.0732" cy="126.358" r="4.55439" fill="#ECE5E5"/>
<circle cx="43.5921" cy="126.358" r="4.55439" fill="#ECE5E5"/>
<circle cx="63.1107" cy="126.358" r="4.55439" fill="#ECE5E5"/>
<circle cx="4.55439" cy="143.708" r="4.55439" fill="#ECE5E5"/>
<circle cx="24.0732" cy="143.708" r="4.55439" fill="#ECE5E5"/>
<circle cx="43.5921" cy="143.708" r="4.55439" fill="#ECE5E5"/>
<circle cx="63.1107" cy="143.708" r="4.55439" fill="#ECE5E5"/>
<circle cx="4.55439" cy="161.058" r="4.55439" fill="#ECE5E5"/>
<circle cx="24.0732" cy="161.058" r="4.55439" fill="#ECE5E5"/>
<circle cx="43.5921" cy="161.058" r="4.55439" fill="#ECE5E5"/>
<circle cx="63.1107" cy="161.058" r="4.55439" fill="#ECE5E5"/>
<circle cx="82.6295" cy="91.8744" r="4.55439" fill="#ECE5E5"/>
<circle cx="82.6295" cy="109.224" r="4.55439" fill="#ECE5E5"/>
<circle cx="82.6295" cy="126.358" r="4.55439" fill="#ECE5E5"/>
<circle cx="82.6295" cy="143.708" r="4.55439" fill="#ECE5E5"/>
<circle cx="82.6295" cy="161.058" r="4.55439" fill="#ECE5E5"/>
<circle cx="102.371" cy="91.8744" r="4.55439" fill="#ECE5E5"/>
<circle cx="121.889" cy="91.8744" r="4.55439" fill="#ECE5E5"/>
<circle cx="141.408" cy="91.8744" r="4.55439" fill="#ECE5E5"/>
<circle cx="160.927" cy="91.8744" r="4.55439" fill="#ECE5E5"/>
<circle cx="102.371" cy="109.224" r="4.55439" fill="#ECE5E5"/>
<circle cx="121.889" cy="109.224" r="4.55439" fill="#ECE5E5"/>
<circle cx="141.408" cy="109.224" r="4.55439" fill="#ECE5E5"/>
<circle cx="160.927" cy="109.224" r="4.55439" fill="#ECE5E5"/>
<circle cx="102.371" cy="126.358" r="4.55439" fill="#ECE5E5"/>
<circle cx="121.889" cy="126.358" r="4.55439" fill="#ECE5E5"/>
<circle cx="141.408" cy="126.358" r="4.55439" fill="#ECE5E5"/>
<circle cx="160.927" cy="126.358" r="4.55439" fill="#ECE5E5"/>
<circle cx="102.371" cy="143.708" r="4.55439" fill="#ECE5E5"/>
<circle cx="121.889" cy="143.708" r="4.55439" fill="#ECE5E5"/>
<circle cx="141.408" cy="143.708" r="4.55439" fill="#ECE5E5"/>
<circle cx="160.927" cy="143.708" r="4.55439" fill="#ECE5E5"/>
<circle cx="102.371" cy="161.058" r="4.55439" fill="#ECE5E5"/>
<circle cx="121.889" cy="161.058" r="4.55439" fill="#ECE5E5"/>
<circle cx="141.408" cy="161.058" r="4.55439" fill="#ECE5E5"/>
<circle cx="160.927" cy="161.058" r="4.55439" fill="#ECE5E5"/>
<circle cx="180.446" cy="91.8744" r="4.55439" fill="#ECE5E5"/>
<circle cx="180.446" cy="109.224" r="4.55439" fill="#ECE5E5"/>
<circle cx="180.446" cy="126.358" r="4.55439" fill="#ECE5E5"/>
<circle cx="180.446" cy="143.708" r="4.55439" fill="#ECE5E5"/>
<circle cx="180.446" cy="161.058" r="4.55439" fill="#ECE5E5"/>
</g>
</svg>
