<svg width="75" height="75" viewBox="0 0 75 75" fill="none" xmlns="http://www.w3.org/2000/svg">
<g clip-path="url(#clip0)">
<path d="M68.75 65.625H67.1874V64.0625C67.1874 62.0281 65.878 60.3094 64.0625 59.6625V37.2125C65.8781 36.5656 67.1874 34.8469 67.1874 32.8125V31.25H68.75C69.6125 31.25 70.3125 30.5499 70.3125 29.6874V24.9999H71.8751C72.5688 24.9999 73.1782 24.5436 73.372 23.8749C73.5658 23.2062 73.3001 22.4937 72.7127 22.1187L38.3375 0.243787C37.8249 -0.0812622 37.1719 -0.0812622 36.6593 0.243787L2.28443 22.1187C1.7001 22.4937 1.4313 23.2093 1.6251 23.8749C1.8189 24.5406 2.43135 24.9999 3.1251 24.9999H4.68751V29.6874C4.68751 30.5499 5.38755 31.25 6.25005 31.25H7.8126V32.8125C7.8126 34.8469 9.12203 36.5656 10.9376 37.2125V59.6625C9.12188 60.3094 7.8126 62.0281 7.8126 64.0625V65.625H6.25005C3.66563 65.625 1.56255 67.7281 1.56255 70.3125V73.4375C1.56255 74.3 2.2626 75 3.1251 75H71.8751C72.7376 75 73.4376 74.3 73.4376 73.4375V70.3125C73.4375 67.7281 71.3344 65.625 68.75 65.625ZM64.0625 32.8125C64.0625 33.675 63.3624 34.3751 62.4999 34.3751H56.25C55.3875 34.3751 54.6875 33.675 54.6875 32.8125V31.25H64.0625V32.8125ZM42.1875 59.6625V37.2125C44.0032 36.5656 45.3125 34.8469 45.3125 32.8125V31.25H51.5625V32.8125C51.5625 34.8469 52.8719 36.5656 54.6875 37.2125V59.6625C52.8719 60.3094 51.5625 62.0281 51.5625 64.0625V65.625H45.3125V64.0625C45.3125 62.0281 44.0032 60.3094 42.1875 59.6625ZM20.3126 59.6625V37.2125C22.1281 36.5656 23.4375 34.8469 23.4375 32.8125V31.25H29.6876V32.8125C29.6876 34.8469 30.997 36.5656 32.8125 37.2125V59.6625C30.9968 60.3094 29.6876 62.0281 29.6876 64.0625V65.625H23.4375V64.0625C23.4375 62.0281 22.1281 60.3094 20.3126 59.6625ZM12.5 34.3751C11.6375 34.3751 10.9374 33.675 10.9374 32.8125V31.25H20.3124V32.8125C20.3124 33.675 19.6124 34.3751 18.7499 34.3751H12.5ZM17.1875 37.5V59.375H14.0625V37.5H17.1875ZM32.8125 64.0625C32.8125 63.2 33.5126 62.4999 34.3751 62.4999H40.6251C41.4876 62.4999 42.1877 63.2 42.1877 64.0625V65.625H32.8127V64.0625H32.8125ZM35.9375 59.375V37.5H39.0624V59.375H35.9375ZM40.625 34.3751H34.3749C33.5124 34.3751 32.8124 33.675 32.8124 32.8125V31.25H42.1874V32.8125C42.1875 33.675 41.4875 34.3751 40.625 34.3751ZM54.6875 64.0625C54.6875 63.2 55.3875 62.4999 56.25 62.4999H62.5001C63.3626 62.4999 64.0626 63.2 64.0626 64.0625V65.625H54.6876V64.0625H54.6875ZM57.8126 59.375V37.5H60.9375V59.375H57.8126ZM37.5 3.41561L66.5093 21.875H8.49068L37.5 3.41561ZM7.81246 28.125V25.0001H67.1874V28.125H7.81246ZM10.9376 64.0625C10.9376 63.2 11.6376 62.4999 12.5001 62.4999H18.75C19.6125 62.4999 20.3126 63.2 20.3126 64.0625V65.625H10.9376V64.0625ZM70.3125 71.8751H4.68751V70.3125C4.68751 69.45 5.38755 68.75 6.25005 68.75H68.7501C69.6126 68.75 70.3127 69.45 70.3127 70.3125V71.8751H70.3125Z" fill="#1267E5"/>
<path d="M47.7406 15.8875L38.3656 9.63746C37.8406 9.28751 37.1562 9.28751 36.6312 9.63746L27.2562 15.8875C26.6843 16.2688 26.4281 16.9813 26.6281 17.6406C26.8282 18.3 27.4376 18.75 28.125 18.75H46.875C47.5624 18.75 48.1687 18.3 48.3687 17.6406C48.5688 16.9812 48.3124 16.2687 47.7406 15.8875ZM33.2843 15.625L37.4968 12.8156L41.7125 15.625H33.2843Z" fill="#1267E5"/>
</g>
<defs>
<clipPath id="clip0">
<rect width="75" height="75" fill="white"/>
</clipPath>
</defs>
</svg>
