<svg width="81" height="81" viewBox="0 0 81 81" fill="none" xmlns="http://www.w3.org/2000/svg">
<path d="M74.25 70.875H72.5624V69.1874C72.5624 68.256 71.8064 67.4999 70.8748 67.4999H65.8123V50.625H67.4999C70.2911 50.625 72.5624 48.3537 72.5624 45.5625C72.5624 42.7713 70.2911 40.5 67.4999 40.5H65.728C64.9619 28.9778 56.4839 19.5446 45.4038 17.3611C44.9955 15.7039 43.777 14.3775 42.1874 13.8105V10.125H50.625C51.3067 10.125 51.9243 9.7132 52.1843 9.08212C52.4475 8.45105 52.3024 7.72537 51.8198 7.2427L49.6396 5.0625L51.8198 2.8823C52.3024 2.39963 52.4475 1.67411 52.1843 1.04288C51.9243 0.411803 51.3067 0 50.625 0H40.5C39.5685 0 38.8125 0.756053 38.8125 1.68755V13.8105C37.2228 14.3775 36.0045 15.7039 35.596 17.3611C24.516 19.5446 16.038 28.9778 15.2718 40.5H13.5C10.7088 40.5 8.43746 42.7713 8.43746 45.5625C8.43746 48.3537 10.7088 50.625 13.5 50.625H15.1875V67.5001H10.125C9.19351 67.5001 8.43746 68.2561 8.43746 69.1876V70.875H6.75006C3.95888 70.875 1.68756 73.1463 1.68756 75.9375V79.3124C1.68756 80.2439 2.44361 81 3.37511 81H77.6251C78.5566 81 79.3126 80.2439 79.3126 79.3124V75.9375C79.3125 73.1463 77.0411 70.875 74.25 70.875ZM42.1876 3.37843H46.5514L46.0586 3.87123C45.4005 4.52936 45.4005 5.59928 46.0586 6.25741L46.5514 6.75021H42.1876V3.37843ZM40.5 20.25C52.0291 20.25 61.5094 29.1871 62.3733 40.5H18.6267C19.4906 29.1871 28.971 20.25 40.5 20.25ZM13.5 47.2501C12.5685 47.2501 11.8124 46.4907 11.8124 45.5625C11.8124 44.6343 12.5685 43.8749 13.5 43.8749H67.4999C68.4314 43.8749 69.1875 44.6343 69.1875 45.5625C69.1875 46.4907 68.4314 47.2501 67.4999 47.2501H13.5ZM62.4376 50.625V67.5001H59.0626V50.625H62.4376ZM55.6875 50.625V67.5001H52.3126V50.625H55.6875ZM48.9375 50.625V67.5001H45.5625V50.625H48.9375ZM42.1876 50.625V67.5001H38.8126V50.625H42.1876ZM35.4375 50.625V67.5001H32.0626V50.625H35.4375ZM28.6875 50.625V67.5001H25.3125V50.625H28.6875ZM21.9376 50.625V67.5001H18.5626V50.625H21.9376ZM75.9375 77.6251H5.06251V75.9375C5.06251 75.0093 5.81856 74.2499 6.75006 74.2499H10.125C11.0565 74.2499 11.8126 73.4939 11.8126 72.5624V70.875H69.1876V72.5626C69.1876 73.494 69.9437 74.2501 70.8752 74.2501H74.2501C75.1816 74.2501 75.9377 75.0095 75.9377 75.9377V77.6251H75.9375Z" fill="#1267E5"/>
</svg>
