<svg width="32" height="32" viewBox="0 0 32 32" fill="none" xmlns="http://www.w3.org/2000/svg">
<g clip-path="url(#clip0)">
<path d="M16 31.999C24.8366 31.999 32 24.8356 32 15.999C32 7.16247 24.8366 -0.000976562 16 -0.000976562C7.16344 -0.000976562 0 7.16247 0 15.999C0 24.8356 7.16344 31.999 16 31.999Z" fill="#DC4E41"/>
<path d="M5.57049 16.7166C5.51373 19.4695 7.40984 22.0966 10.0181 22.9534C12.475 23.7788 15.4957 23.1613 17.1305 21.0573C18.3242 19.583 18.5954 17.6176 18.4662 15.7814C16.3622 15.7626 14.2581 15.7688 12.1572 15.772C12.1538 16.5215 12.1572 17.2682 12.1604 18.0178C13.4202 18.0526 14.6803 18.0366 15.9401 18.062C15.622 19.1518 14.8976 20.166 13.7981 20.5596C11.6752 21.4951 8.96654 20.273 8.29857 18.046C7.49227 15.9134 8.81224 13.3399 10.9916 12.7196C12.3429 12.2442 13.7351 12.7795 14.8913 13.482C15.4771 12.9338 16.0253 12.348 16.5638 11.7559C15.2501 10.6566 13.5619 9.98268 11.8264 10.1307C8.42121 10.1712 5.44129 13.3148 5.57049 16.7166Z" fill="#DC4E41"/>
<path d="M22.5611 13.8809C22.5548 14.5078 22.5482 15.1378 22.5451 15.7644C21.915 15.7707 21.2884 15.7738 20.6615 15.777C20.6615 16.4039 20.6615 17.0274 20.6615 17.6543C21.2884 17.6574 21.9185 17.6605 22.5451 17.6671C22.5514 18.294 22.5514 18.9206 22.5576 19.5507C23.1814 19.5507 23.8083 19.5475 24.4349 19.5507C24.4383 18.9206 24.4412 18.294 24.4478 17.664C25.0744 17.6608 25.7044 17.6577 26.3313 17.6545C26.3313 17.0276 26.3313 16.4042 26.3313 15.7773C25.7047 15.7741 25.0747 15.771 24.4478 15.7647C24.4443 15.1378 24.4383 14.5078 24.4349 13.8811C23.8083 13.8809 23.1845 13.8809 22.5611 13.8809Z" fill="#DC4E41"/>
<path d="M5.57049 16.7159C5.44129 13.3142 8.42093 10.1705 11.8261 10.1297C13.5616 9.9817 15.2501 10.6557 16.5635 11.7549C16.0248 12.3473 15.4766 12.9328 14.891 13.481C13.7348 12.7785 12.3426 12.2432 10.9913 12.7186C8.81167 13.3393 7.4917 15.9128 8.29829 18.045C8.96626 20.272 11.6749 21.4941 13.7978 20.5586C14.897 20.165 15.6218 19.1508 15.9398 18.061C14.68 18.0359 13.4199 18.0516 12.1601 18.0168C12.157 17.2672 12.1538 16.5205 12.157 15.771C14.2579 15.7679 16.3619 15.7616 18.4659 15.7804C18.5951 17.6169 18.3242 19.5823 17.1303 21.0563C15.4954 23.1604 12.475 23.7778 10.0178 22.9524C7.41013 22.0959 5.51373 19.4688 5.57049 16.7159Z" fill="white"/>
<path d="M22.5611 13.8809C23.1848 13.8809 23.8083 13.8809 24.4349 13.8809C24.4383 14.5078 24.4443 15.1378 24.4478 15.7644C25.0744 15.7707 25.7044 15.7738 26.3313 15.777C26.3313 16.4039 26.3313 17.0274 26.3313 17.6543C25.7047 17.6574 25.0747 17.6605 24.4478 17.6637C24.4415 18.2937 24.4383 18.9203 24.4349 19.5504C23.8083 19.5472 23.1811 19.5504 22.5576 19.5504C22.5516 18.9203 22.5516 18.2937 22.5451 17.6668C21.9185 17.6602 21.2884 17.6574 20.6615 17.654C20.6615 17.0271 20.6615 16.4036 20.6615 15.7767C21.2884 15.7735 21.9153 15.7704 22.5451 15.7641C22.5482 15.1378 22.5545 14.5078 22.5611 13.8809Z" fill="white"/>
</g>
<defs>
<clipPath id="clip0">
<rect width="32" height="32" fill="white"/>
</clipPath>
</defs>
</svg>
