<svg width="1920" height="886" viewBox="0 0 1920 886" fill="none" xmlns="http://www.w3.org/2000/svg">
<path d="M506 659.503C326.5 620.003 197.504 823.249 -4 885.003H1291.1H2130.5C1726 302 1623.5 286.5 1448.5 302.002C1282.5 324.002 1283 659.503 969.5 601.5C745.471 560.051 740.682 711.146 506 659.503Z" fill="url(#paint0_linear)"/>
<path d="M1215 769C1129.5 753.544 1073 854.5 973.5 884.999H1613H1951C1872 699 1777.67 751.481 1652 778.999C1553.04 800.669 1542.77 683 1449 683C1336.5 683 1331.76 790.107 1215 769Z" fill="url(#paint1_linear)" stroke="url(#paint2_linear)"/>
<line opacity="0.5" x1="1450.5" y1="2.18557e-08" x2="1450.5" y2="883" stroke="url(#paint3_linear)"/>
<circle cx="1450" cy="684" r="6" fill="#559CF7"/>
<defs>
<linearGradient id="paint0_linear" x1="736.2" y1="-162.905" x2="715.658" y2="884.917" gradientUnits="userSpaceOnUse">
<stop stop-color="#151E37"/>
<stop offset="1" stop-color="#0C1E32" stop-opacity="0"/>
</linearGradient>
<linearGradient id="paint1_linear" x1="1339" y1="367.453" x2="1328.85" y2="884.958" gradientUnits="userSpaceOnUse">
<stop stop-color="#469BFF"/>
<stop offset="1" stop-color="#3D96FF" stop-opacity="0"/>
</linearGradient>
<linearGradient id="paint2_linear" x1="1488" y1="683" x2="1488" y2="884.999" gradientUnits="userSpaceOnUse">
<stop stop-color="#5483D3"/>
<stop offset="1" stop-opacity="0"/>
</linearGradient>
<linearGradient id="paint3_linear" x1="1449.99" y1="11.9999" x2="1442.49" y2="883" gradientUnits="userSpaceOnUse">
<stop stop-color="#294D83"/>
<stop offset="0.458333" stop-color="#396CB8"/>
<stop offset="1" stop-color="#2E5693"/>
</linearGradient>
</defs>
</svg>
