<svg width="69" height="69" viewBox="0 0 69 69" fill="none" xmlns="http://www.w3.org/2000/svg">
<path d="M23.9898 0C18.4151 0 13.8797 4.53527 13.8797 10.1101V55.7008H5.79169V60.9645C5.79169 65.3952 9.39634 68.9999 13.827 68.9999H49.1066C53.5374 68.9999 57.1419 65.3952 57.1419 60.9645V10.1101C57.1421 6.76503 59.8633 4.04381 63.2083 4.04381V0L23.9898 0ZM13.827 64.9562C11.6261 64.9562 9.8355 63.1656 9.8355 60.9647V59.7448H40.904V60.9647C40.904 62.4164 41.2911 63.7796 41.9672 64.9562H13.827ZM53.0982 10.1101V60.9645C53.0982 63.1654 51.3076 64.956 49.1067 64.956H48.9395C46.7385 64.956 44.9479 63.1654 44.9479 60.9645V55.7008H17.9235V10.1101C17.9235 6.76503 20.6449 4.04381 23.9898 4.04381H55.125C53.8528 5.73467 53.0982 7.83583 53.0982 10.1101Z" fill="#1267E5"/>
<path d="M42.1589 38.8591C38.4911 38.8591 35.507 41.8432 35.507 45.5111C35.507 49.1789 38.4911 52.163 42.1589 52.163C45.8268 52.163 48.8109 49.1789 48.8109 45.5111C48.8109 41.8432 45.8268 38.8591 42.1589 38.8591ZM42.1589 48.1191C40.7208 48.1191 39.5508 46.949 39.5508 45.5109C39.5508 44.0728 40.7208 42.9028 42.1589 42.9028C43.597 42.9028 44.767 44.0728 44.767 45.5109C44.767 46.949 43.597 48.1191 42.1589 48.1191Z" fill="#1267E5"/>
<path d="M21.9152 15.2625H49.1067V19.3063H21.9152V15.2625Z" fill="#1267E5"/>
<path d="M21.9152 23.3503H49.1067V27.3942H21.9152V23.3503Z" fill="#1267E5"/>
<path d="M21.9152 31.4385H49.1067V35.4823H21.9152V31.4385Z" fill="#1267E5"/>
<path d="M21.9152 39.5266H31.1575V43.5704H21.9152V39.5266Z" fill="#1267E5"/>
</svg>
