<svg width="32" height="32" viewBox="0 0 32 32" fill="none" xmlns="http://www.w3.org/2000/svg">
<g clip-path="url(#clip0)">
<path d="M16.0009 31.9997C24.8373 31.9997 32.0007 24.8363 32.0007 15.9999C32.0007 7.16338 24.8373 0 16.0009 0C7.16439 0 0.00100708 7.16338 0.00100708 15.9999C0.00100708 24.8363 7.16439 31.9997 16.0009 31.9997Z" fill="#55ACEE"/>
<path d="M25.8007 11.4989C25.115 11.8029 24.3774 12.0085 23.6039 12.1004C24.3937 11.6272 24.9998 10.8785 25.2858 9.98495C24.5469 10.4233 23.728 10.7413 22.8573 10.9127C22.1596 10.1698 21.1657 9.70544 20.065 9.70544C17.9533 9.70544 16.2406 11.4181 16.2406 13.5299C16.2406 13.8296 16.2746 14.1214 16.3402 14.4015C13.1617 14.242 10.3436 12.7196 8.45716 10.4051C8.12803 10.9698 7.93921 11.6272 7.93921 12.328C7.93921 13.6545 8.61488 14.8256 9.64051 15.5112C9.0139 15.4916 8.42379 15.3196 7.90841 15.0324C7.90813 15.0486 7.90813 15.0649 7.90813 15.0808C7.90813 16.9339 9.22695 18.4794 10.9762 18.8305C10.6556 18.9184 10.317 18.9649 9.96879 18.9649C9.72179 18.9649 9.4825 18.9412 9.2492 18.8967C9.73577 20.4157 11.1479 21.5215 12.8218 21.5526C11.5126 22.5785 9.86383 23.1897 8.07155 23.1897C7.76352 23.1897 7.45835 23.1718 7.15973 23.1361C8.85132 24.2216 10.8621 24.8545 13.0217 24.8545C20.0562 24.8545 23.9031 19.027 23.9031 13.9728C23.9031 13.8071 23.8994 13.6419 23.892 13.4782C24.6398 12.9392 25.2881 12.2658 25.8007 11.4989Z" fill="#F1F2F2"/>
</g>
<defs>
<clipPath id="clip0">
<rect width="32" height="32" fill="white"/>
</clipPath>
</defs>
</svg>
