<svg width="21" height="21" viewBox="0 0 21 21" fill="none" xmlns="http://www.w3.org/2000/svg">
<circle cx="10.5" cy="10.5" r="9.9" stroke="#E31112" stroke-width="1.2"/>
<path d="M10.1523 5C8.69846 5 7.51562 6.18283 7.51562 7.63672C7.51562 9.09061 8.69846 10.2734 10.1523 10.2734C11.6062 10.2734 12.7891 9.09061 12.7891 7.63672C12.7891 6.18283 11.6062 5 10.1523 5Z" fill="#E31112"/>
<path d="M13.4329 11.996C12.7111 11.263 11.7541 10.8594 10.7383 10.8594H9.56641C8.55063 10.8594 7.59363 11.263 6.87176 11.996C6.15342 12.7254 5.75781 13.6881 5.75781 14.707C5.75781 14.8688 5.88898 15 6.05078 15H14.2539C14.4157 15 14.5469 14.8688 14.5469 14.707C14.5469 13.6881 14.1513 12.7254 13.4329 11.996Z" fill="#E31112"/>
</svg>
