<svg width="18" height="18" viewBox="0 0 18 18" fill="none" xmlns="http://www.w3.org/2000/svg">
<path d="M2.10938 1.40625H2.95312V0H4.35938V1.40625H13.6406V0H15.0469V1.40625H15.8906C17.0537 1.40625 18 2.35252 18 3.51562V15.8906C18 17.0537 17.0537 18 15.8906 18H2.10938C0.946266 18 0 17.0537 0 15.8906V3.51562C0 2.35252 0.946266 1.40625 2.10938 1.40625ZM1.40625 15.8906C1.40625 16.2783 1.72167 16.5938 2.10938 16.5938H15.8906C16.2783 16.5938 16.5938 16.2783 16.5938 15.8906V6.60938H1.40625V15.8906ZM1.40625 5.20312H16.5938V3.51562C16.5938 3.12792 16.2783 2.8125 15.8906 2.8125H15.0469V4.21875H13.6406V2.8125H4.35938V4.21875H2.95312V2.8125H2.10938C1.72167 2.8125 1.40625 3.12792 1.40625 3.51562V5.20312Z" fill="#E31112"/>
<path d="M13.9219 8.08594H15.3281V9.49219H13.9219V8.08594Z" fill="#E31112"/>
<path d="M11.1094 8.08594H12.5156V9.49219H11.1094V8.08594Z" fill="#E31112"/>
<path d="M8.29688 8.08594H9.70312V9.49219H8.29688V8.08594Z" fill="#E31112"/>
<path d="M5.48438 8.08594H6.89062V9.49219H5.48438V8.08594Z" fill="#E31112"/>
<path d="M2.67188 8.08594H4.07812V9.49219H2.67188V8.08594Z" fill="#E31112"/>
<path d="M13.9219 10.8984H15.3281V12.3047H13.9219V10.8984Z" fill="#E31112"/>
<path d="M11.1094 10.8984H12.5156V12.3047H11.1094V10.8984Z" fill="#E31112"/>
<path d="M8.29688 10.8984H9.70312V12.3047H8.29688V10.8984Z" fill="#E31112"/>
<path d="M5.48438 10.8984H6.89062V12.3047H5.48438V10.8984Z" fill="#E31112"/>
<path d="M13.9219 13.7109H15.3281V15.1172H13.9219V13.7109Z" fill="#E31112"/>
<path d="M11.1094 13.7109H12.5156V15.1172H11.1094V13.7109Z" fill="#E31112"/>
<path d="M8.29688 13.7109H9.70312V15.1172H8.29688V13.7109Z" fill="#E31112"/>
<path d="M5.48438 13.7109H6.89062V15.1172H5.48438V13.7109Z" fill="#E31112"/>
<path d="M2.67188 10.8984H4.07812V12.3047H2.67188V10.8984Z" fill="#E31112"/>
</svg>
