<svg width="18" height="18" viewBox="0 0 18 18" fill="none" xmlns="http://www.w3.org/2000/svg">
<path d="M17.3566 0H10.2852C10.1147 3.76677e-05 9.95121 0.0678019 9.83068 0.188376L0.187747 9.83131C-0.0632332 10.0824 -0.0632332 10.4893 0.187747 10.7403L7.25922 17.8118C7.51027 18.0627 7.9172 18.0627 8.16821 17.8118L17.8111 8.16884C17.9317 8.04831 17.9995 7.88483 17.9995 7.71434V0.642875C17.9995 0.287819 17.7117 0 17.3566 0ZM16.7138 7.44818L7.71371 16.4483L1.55124 10.2858L10.5513 1.28571H16.7138V7.44818Z" fill="#E31112"/>
<path d="M13.4999 2.57153C12.4347 2.57153 11.5713 3.43499 11.5713 4.50012C11.5713 5.56525 12.4347 6.42871 13.4999 6.42871C14.565 6.42871 15.4285 5.56525 15.4285 4.50012C15.4285 3.43499 14.565 2.57153 13.4999 2.57153ZM13.4999 5.14296C13.1448 5.14296 12.857 4.85514 12.857 4.50008C12.857 4.14503 13.1448 3.85721 13.4999 3.85721C13.8549 3.85721 14.1428 4.14503 14.1428 4.50008C14.1428 4.85514 13.8549 5.14296 13.4999 5.14296Z" fill="#E31112"/>
</svg>
