<svg width="844" height="320" viewBox="0 0 844 320" fill="none" xmlns="http://www.w3.org/2000/svg"><path d="M.0185536 5.42955H86.7352L163.768 228.604 241.241 5.42955H323.996L203.385 314H119.749L.0185536 5.42955zM469.116.587516C500.516.587516 528.834 7.48376 554.072 21.2763 579.603 35.0688 599.558 53.9968 613.937 78.0603 628.61 102.124 635.946 129.122 635.946 159.054 635.946 189.281 628.61 216.572 613.937 240.929 599.558 265.286 579.603 284.508 554.072 298.593 528.834 312.679 500.516 319.722 469.116 319.722 437.716 319.722 409.251 312.826 383.72 299.034 358.482 284.948 338.527 265.726 323.855 241.369 309.475 216.719 302.285 189.281 302.285 159.054 302.285 129.122 309.475 102.124 323.855 78.0603 338.527 53.9968 358.482 35.0688 383.72 21.2763 409.251 7.48376 437.716.587516 469.116.587516zM469.996 68.8163C454.736 68.8163 440.504 72.778 427.298 80.7014 414.386 88.6247 404.115 99.6294 396.485 113.715 388.855 127.508 385.04 142.768 385.04 159.495 385.04 176.515 388.855 192.068 396.485 206.154 404.409 219.947 414.826 230.952 427.738 239.168 440.651 247.092 454.736 251.053 469.996 251.053 485.256 251.053 499.195 247.092 511.814 239.168 524.726 230.952 534.85 219.947 542.187 206.154 549.523 192.068 553.191 176.515 553.191 159.495 553.191 142.768 549.523 127.508 542.187 113.715 534.85 99.6294 524.726 88.6247 511.814 80.7014 499.195 72.778 485.256 68.8163 469.996 68.8163zM612.297 5.42955H876.849V71.8977H784.41V314H703.855V71.8977H612.297V5.42955zm270.828.0H1126.55V69.6967H963.679V127.361H1110.7V191.188L963.679 191.628V249.733H1130.95V314H883.125V5.42955z" fill="url(#paint0_linear)"/><defs><linearGradient id="paint0_linear" x1="575.565" y1="-112" x2="576.179" y2="282.312" gradientUnits="userSpaceOnUse"><stop offset=".0742809" stop-color="#29375f"/><stop offset="1" stop-color="#29375f" stop-opacity="0"/></linearGradient></defs></svg>