<svg width="12" height="12" viewBox="0 0 12 12" fill="none" xmlns="http://www.w3.org/2000/svg">
<path fill-rule="evenodd" clip-rule="evenodd" d="M1 1.5C1 1.22386 1.22386 1 1.5 1H5C5.27614 1 5.5 1.22386 5.5 1.5V5C5.5 5.27614 5.27614 5.5 5 5.5H1.5C1.22386 5.5 1 5.27614 1 5V1.5ZM2 2V4.5H4.5V2H2Z" fill="#73778A"/>
<path fill-rule="evenodd" clip-rule="evenodd" d="M6.5 1.5C6.5 1.22386 6.72386 1 7 1H10.5C10.7761 1 11 1.22386 11 1.5V5C11 5.27614 10.7761 5.5 10.5 5.5H7C6.72386 5.5 6.5 5.27614 6.5 5V1.5ZM7.5 2V4.5H10V2H7.5Z" fill="#73778A"/>
<path fill-rule="evenodd" clip-rule="evenodd" d="M6.5 7C6.5 6.72386 6.72386 6.5 7 6.5H10.5C10.7761 6.5 11 6.72386 11 7V10.5C11 10.7761 10.7761 11 10.5 11H7C6.72386 11 6.5 10.7761 6.5 10.5V7ZM7.5 7.5V10H10V7.5H7.5Z" fill="#73778A"/>
<path fill-rule="evenodd" clip-rule="evenodd" d="M1 7C1 6.72386 1.22386 6.5 1.5 6.5H5C5.27614 6.5 5.5 6.72386 5.5 7V10.5C5.5 10.7761 5.27614 11 5 11H1.5C1.22386 11 1 10.7761 1 10.5V7ZM2 7.5V10H4.5V7.5H2Z" fill="#73778A"/>
</svg>
